{"title":"The.Librarian.3.2008.DVDRiP.XviD.OPTIONAL-NORDIC_SUB-Zen_Bud","uid":5887994,"size":755305596,"categoryP":"video","categoryS":"movies","magnet":"?xt=urn:btih:2b7d665ea938a73e0e9548e0071c6e4274ed806f&amp;dn=+The.Librarian.3.2008.DVDRiP.XviD.OPTIONAL-NORDIC_SUB-Zen_Bud&amp;tr=udp%3A%2F%2Ftracker.openbittorrent.com%3A80&amp;tr=udp%3A%2F%2Fopen.demonii.com%3A1337&amp;tr=udp%3A%2F%2Ftracker.coppersurfer.tk%3A6969&amp;tr=udp%3A%2F%2Fexodus.desync.com%3A6969","seeders":0,"leechers":1,"uploader":"Zen_Bud","files":-1,"time":1287130601,"description":"******* The.Librarian.3.2008.DVDRiP.XviD.OPTIONAL-NORDIC_SUB-Zen_Bud *******\n\nFormat                           : AVI\nFile size                        : 706 MiB\nDuration                         : 1h 26mn\nOverall bit rate                 : 1 141 Kbps\n\nVideo\n\nFormat                           : MPEG-4 Visual\nCodec ID/Hint                    : XviD\nDuration                         : 1h 26mn\nBit rate                         : 1 000 Kbps\nWidth                            : 720 pixels\nHeight                           : 576 pixels\nDisplay aspect ratio             : 16:9\nStream size                      : 618 MiB (88%)\nWriting library                  : XviD 1.1.2 (UTC 2006-11-01)\n\nAudio\n\nFormat                           : MPEG Audio\nCodec ID/Hint                    : MP3\nDuration                         : 1h 26mn\nBit rate                         : 128 Kbps\nChannel(s)                       : 2 channels\nSampling rate                    : 48.0 KHz\nStream size                      : 79.1 MiB (11%)\nLanguage                         : English\n\nText #1\nLanguage                         : Danish\n\nText #2\nLanguage                         : Finnish\n\nText #3\nLanguage                         : Norwegian\n\nText #4\nLanguage                         : Swedish","torrent":{"xt":"urn:btih:2b7d665ea938a73e0e9548e0071c6e4274ed806f","amp;dn":"+The.Librarian.3.2008.DVDRiP.XviD.OPTIONAL-NORDIC_SUB-Zen_Bud","amp;tr":["udp%3A%2F%2Ftracker.openbittorrent.com%3A80","udp%3A%2F%2Fopen.demonii.com%3A1337","udp%3A%2F%2Ftracker.coppersurfer.tk%3A6969","udp%3A%2F%2Fexodus.desync.com%3A6969"],"infoHash":"2b7d665ea938a73e0e9548e0071c6e4274ed806f","infoHashBuffer":{"type":"Buffer","data":[43,125,102,94,169,56,167,62,14,149,72,224,7,28,110,66,116,237,128,111]},"announce":[],"urlList":[]}}